<svg id="visual" viewBox="0 0 900 600" width="900" height="600" xmlns="http://www.w3.org/2000/svg" xmlns:xlink="http://www.w3.org/1999/xlink" version="1.1"><g stroke-width="1" stroke-linejoin="bevel"><path d="M476 280L475 267.3L471 260.4Z" fill="#002b1d" stroke="#002b1d"></path><path d="M510 237L473 236.1L471 260.4Z" fill="#001500" stroke="#001500"></path><path d="M510 237L471 260.4L475 267.3Z" fill="#001b08" stroke="#001b08"></path><path d="M473 236.1L470 232L471 260.4Z" fill="#003122" stroke="#003122"></path><path d="M470 232L401 252.3L471 260.4Z" fill="#003728" stroke="#003728"></path><path d="M471 260.4L401 252.3L476 280Z" fill="#000000" stroke="#000000"></path><path d="M476 280L519 287.7L475 267.3Z" fill="#004b3a" stroke="#004b3a"></path><path d="M473 236.1L510 237L470 232Z" fill="#004b3a" stroke="#004b3a"></path><path d="M519 287.7L510 237L475 267.3Z" fill="#002517" stroke="#002517"></path><path d="M519 287.7L535 264.1L510 237Z" fill="#000000" stroke="#000000"></path><path d="M535 264.1L522 228.4L510 237Z" fill="#003122" stroke="#003122"></path><path d="M510 237L513 198.6L470 232Z" fill="#003122" stroke="#003122"></path><path d="M401 252.3L395 340.6L476 280Z" fill="#004434" stroke="#004434"></path><path d="M476 280L448 392.4L519 287.7Z" fill="#004b3a" stroke="#004b3a"></path><path d="M470 165.4L438 185.6L470 232Z" fill="#003e2e" stroke="#003e2e"></path><path d="M470 232L410 194.6L401 252.3Z" fill="#002b1d" stroke="#002b1d"></path><path d="M415 191.1L410 194.6L470 232Z" fill="#002517" stroke="#002517"></path><path d="M438 185.6L415 191.1L470 232Z" fill="#003728" stroke="#003728"></path><path d="M558 212.6L513 198.6L522 228.4Z" fill="#003728" stroke="#003728"></path><path d="M522 228.4L513 198.6L510 237Z" fill="#001f11" stroke="#001f11"></path><path d="M327 213.1L352 287.1L401 252.3Z" fill="#000000" stroke="#000000"></path><path d="M401 252.3L352 287.1L395 340.6Z" fill="#001b08" stroke="#001b08"></path><path d="M352 322.1L364 336.9L395 340.6Z" fill="#003e2e" stroke="#003e2e"></path><path d="M355 155.3L373 200.4L410 194.6Z" fill="#003e2e" stroke="#003e2e"></path><path d="M410 194.6L373 200.4L401 252.3Z" fill="#004434" stroke="#004434"></path><path d="M424 152.7L410 194.6L415 191.1Z" fill="#002b1d" stroke="#002b1d"></path><path d="M382 380L399 371.9L395 340.6Z" fill="#003728" stroke="#003728"></path><path d="M395 340.6L448 392.4L476 280Z" fill="#004b3a" stroke="#004b3a"></path><path d="M513 198.6L470 165.4L470 232Z" fill="#002517" stroke="#002517"></path><path d="M438 185.6L424 152.7L415 191.1Z" fill="#001500" stroke="#001500"></path><path d="M352 287.1L352 322.1L395 340.6Z" fill="#000000" stroke="#000000"></path><path d="M399 371.9L443 391.9L395 340.6Z" fill="#003e2e" stroke="#003e2e"></path><path d="M443 391.9L448 392.4L395 340.6Z" fill="#004b3a" stroke="#004b3a"></path><path d="M519 287.7L577 287.7L535 264.1Z" fill="#003e2e" stroke="#003e2e"></path><path d="M535 264.1L558 212.6L522 228.4Z" fill="#003e2e" stroke="#003e2e"></path><path d="M513 198.6L515 162.3L470 165.4Z" fill="#004b3a" stroke="#004b3a"></path><path d="M575 372.9L577 287.7L519 287.7Z" fill="#003e2e" stroke="#003e2e"></path><path d="M535 264.1L577 256.3L558 212.6Z" fill="#002b1d" stroke="#002b1d"></path><path d="M577 287.7L577 256.3L535 264.1Z" fill="#002517" stroke="#002517"></path><path d="M470 165.4L424 152.7L438 185.6Z" fill="#000000" stroke="#000000"></path><path d="M364 336.9L382 380L395 340.6Z" fill="#001f11" stroke="#001f11"></path><path d="M399 371.9L393 394.6L443 391.9Z" fill="#003122" stroke="#003122"></path><path d="M329 393L382 380L364 336.9Z" fill="#003e2e" stroke="#003e2e"></path><path d="M566 165.1L515 162.3L513 198.6Z" fill="#004b3a" stroke="#004b3a"></path><path d="M470 165.4L483 148.7L424 152.7Z" fill="#004b3a" stroke="#004b3a"></path><path d="M515 162.3L483 148.7L470 165.4Z" fill="#004b3a" stroke="#004b3a"></path><path d="M382 380L393 394.6L399 371.9Z" fill="#004434" stroke="#004434"></path><path d="M443 391.9L455 450.6L448 392.4Z" fill="#001500" stroke="#001500"></path><path d="M577 256.3L573 213.4L558 212.6Z" fill="#001500" stroke="#001500"></path><path d="M558 212.6L566 165.1L513 198.6Z" fill="#002517" stroke="#002517"></path><path d="M355 155.3L327 213.1L373 200.4Z" fill="#003122" stroke="#003122"></path><path d="M373 200.4L327 213.1L401 252.3Z" fill="#001b08" stroke="#001b08"></path><path d="M352 287.1L306 290L352 322.1Z" fill="#003e2e" stroke="#003e2e"></path><path d="M329 393L385 403.4L382 380Z" fill="#000000" stroke="#000000"></path><path d="M382 380L385 403.4L393 394.6Z" fill="#002b1d" stroke="#002b1d"></path><path d="M393 394.6L401 446.3L443 391.9Z" fill="#004434" stroke="#004434"></path><path d="M327 213.1L306 290L352 287.1Z" fill="#000000" stroke="#000000"></path><path d="M352 322.1L329 393L364 336.9Z" fill="#003122" stroke="#003122"></path><path d="M396 125.4L355 155.3L424 152.7Z" fill="#001b08" stroke="#001b08"></path><path d="M424 152.7L355 155.3L410 194.6Z" fill="#003728" stroke="#003728"></path><path d="M561 413.6L575 372.9L535 431.6Z" fill="#002517" stroke="#002517"></path><path d="M448 392.4L575 372.9L519 287.7Z" fill="#001f11" stroke="#001f11"></path><path d="M577 287.7L606 243.1L577 256.3Z" fill="#004b3a" stroke="#004b3a"></path><path d="M577 256.3L606 243.1L573 213.4Z" fill="#001500" stroke="#001500"></path><path d="M626 310L606 243.1L577 287.7Z" fill="#002517" stroke="#002517"></path><path d="M573 213.4L566 165.1L558 212.6Z" fill="#004434" stroke="#004434"></path><path d="M515 162.3L494 112.6L483 148.7Z" fill="#001b08" stroke="#001b08"></path><path d="M623 174.7L566 165.1L573 213.4Z" fill="#004434" stroke="#004434"></path><path d="M446 93.9L424 152.7L483 148.7Z" fill="#002517" stroke="#002517"></path><path d="M446 93.9L396 125.4L424 152.7Z" fill="#002517" stroke="#002517"></path><path d="M606 243.1L610 220.1L573 213.4Z" fill="#000000" stroke="#000000"></path><path d="M544 125.3L494 112.6L515 162.3Z" fill="#004b3a" stroke="#004b3a"></path><path d="M327 213.1L284 279.9L306 290Z" fill="#001b08" stroke="#001b08"></path><path d="M279 351.9L329 393L352 322.1Z" fill="#004b3a" stroke="#004b3a"></path><path d="M226 222.6L284 279.9L327 213.1Z" fill="#003728" stroke="#003728"></path><path d="M279 351.9L352 322.1L306 290Z" fill="#001f11" stroke="#001f11"></path><path d="M396 125.4L373 120.3L355 155.3Z" fill="#001500" stroke="#001500"></path><path d="M355 155.3L313 163.3L327 213.1Z" fill="#001f11" stroke="#001f11"></path><path d="M380 86.9L373 120.3L396 125.4Z" fill="#002517" stroke="#002517"></path><path d="M401 446.3L393 394.6L385 403.4Z" fill="#003728" stroke="#003728"></path><path d="M401 446.3L455 450.6L443 391.9Z" fill="#001500" stroke="#001500"></path><path d="M535 431.6L575 372.9L448 392.4Z" fill="#004b3a" stroke="#004b3a"></path><path d="M578 127.7L544 125.3L566 165.1Z" fill="#001f11" stroke="#001f11"></path><path d="M566 165.1L544 125.3L515 162.3Z" fill="#002517" stroke="#002517"></path><path d="M627 333L577 287.7L575 372.9Z" fill="#003122" stroke="#003122"></path><path d="M627 333L626 310L577 287.7Z" fill="#004b3a" stroke="#004b3a"></path><path d="M606 243.1L659 245.3L610 220.1Z" fill="#000000" stroke="#000000"></path><path d="M455 450.6L535 431.6L448 392.4Z" fill="#002517" stroke="#002517"></path><path d="M324 438.6L401 446.3L385 403.4Z" fill="#001f11" stroke="#001f11"></path><path d="M535 431.6L555 422.9L561 413.6Z" fill="#004b3a" stroke="#004b3a"></path><path d="M335 133.3L313 163.3L355 155.3Z" fill="#003122" stroke="#003122"></path><path d="M542 456.3L541 433.3L535 431.6Z" fill="#004b3a" stroke="#004b3a"></path><path d="M535 431.6L541 433.3L555 422.9Z" fill="#002517" stroke="#002517"></path><path d="M467 73.6L446 93.9L494 112.6Z" fill="#004b3a" stroke="#004b3a"></path><path d="M494 112.6L446 93.9L483 148.7Z" fill="#003122" stroke="#003122"></path><path d="M401 446.3L446 458.1L455 450.6Z" fill="#002b1d" stroke="#002b1d"></path><path d="M455 450.6L542 456.3L535 431.6Z" fill="#001500" stroke="#001500"></path><path d="M631 413.9L575 372.9L561 413.6Z" fill="#004b3a" stroke="#004b3a"></path><path d="M631 413.9L627 333L575 372.9Z" fill="#003122" stroke="#003122"></path><path d="M336 90.9L335 133.3L373 120.3Z" fill="#004434" stroke="#004434"></path><path d="M373 120.3L335 133.3L355 155.3Z" fill="#001500" stroke="#001500"></path><path d="M401 446.3L442 464.7L446 458.1Z" fill="#004434" stroke="#004434"></path><path d="M446 458.1L458 479.7L455 450.6Z" fill="#003728" stroke="#003728"></path><path d="M284 279.9L279 351.9L306 290Z" fill="#004434" stroke="#004434"></path><path d="M623 174.7L578 127.7L566 165.1Z" fill="#003e2e" stroke="#003e2e"></path><path d="M540 60.7L467 73.6L494 112.6Z" fill="#003122" stroke="#003122"></path><path d="M279 351.9L279 365.7L329 393Z" fill="#001500" stroke="#001500"></path><path d="M329 393L324 438.6L385 403.4Z" fill="#003728" stroke="#003728"></path><path d="M659 211L623 174.7L610 220.1Z" fill="#003122" stroke="#003122"></path><path d="M610 220.1L623 174.7L573 213.4Z" fill="#000000" stroke="#000000"></path><path d="M659 245.3L606 243.1L664 290.7Z" fill="#000000" stroke="#000000"></path><path d="M401 446.3L443 475.6L442 464.7Z" fill="#003122" stroke="#003122"></path><path d="M442 464.7L458 479.7L446 458.1Z" fill="#000000" stroke="#000000"></path><path d="M440 496.3L443 475.6L401 446.3Z" fill="#001b08" stroke="#001b08"></path><path d="M623 174.7L579 118.7L578 127.7Z" fill="#002b1d" stroke="#002b1d"></path><path d="M578 127.7L579 118.7L544 125.3Z" fill="#003122" stroke="#003122"></path><path d="M458 479.7L542 456.3L455 450.6Z" fill="#003e2e" stroke="#003e2e"></path><path d="M541 433.3L567 459.4L555 422.9Z" fill="#001f11" stroke="#001f11"></path><path d="M555 422.9L567 459.4L561 413.6Z" fill="#003e2e" stroke="#003e2e"></path><path d="M446 93.9L380 86.9L396 125.4Z" fill="#003122" stroke="#003122"></path><path d="M540 60.7L494 112.6L544 125.3Z" fill="#003122" stroke="#003122"></path><path d="M446 93.9L422 0L380 86.9Z" fill="#004434" stroke="#004434"></path><path d="M443 475.6L458 479.7L442 464.7Z" fill="#002517" stroke="#002517"></path><path d="M279 365.7L286 393L329 393Z" fill="#004b3a" stroke="#004b3a"></path><path d="M664 290.7L606 243.1L626 310Z" fill="#003728" stroke="#003728"></path><path d="M301 436.9L324 438.6L329 393Z" fill="#004b3a" stroke="#004b3a"></path><path d="M666 328.9L626 310L627 333Z" fill="#003e2e" stroke="#003e2e"></path><path d="M666 328.9L664 290.7L626 310Z" fill="#003e2e" stroke="#003e2e"></path><path d="M336 90.9L293 133.4L335 133.3Z" fill="#003122" stroke="#003122"></path><path d="M335 133.3L293 133.4L313 163.3Z" fill="#003122" stroke="#003122"></path><path d="M227 196.4L226 222.6L327 213.1Z" fill="#001b08" stroke="#001b08"></path><path d="M241 334.6L249 355.9L279 351.9Z" fill="#001b08" stroke="#001b08"></path><path d="M659 245.3L659 211L610 220.1Z" fill="#001b08" stroke="#001b08"></path><path d="M623 174.7L660 97.7L579 118.7Z" fill="#000000" stroke="#000000"></path><path d="M676 255L659 211L659 245.3Z" fill="#001f11" stroke="#001f11"></path><path d="M554 475.6L567 459.4L542 456.3Z" fill="#001f11" stroke="#001f11"></path><path d="M542 456.3L567 459.4L541 433.3Z" fill="#003e2e" stroke="#003e2e"></path><path d="M380 86.9L336 90.9L373 120.3Z" fill="#002b1d" stroke="#002b1d"></path><path d="M388 0L336 90.9L380 86.9Z" fill="#003122" stroke="#003122"></path><path d="M659 211L647 173.7L623 174.7Z" fill="#002b1d" stroke="#002b1d"></path><path d="M631 413.9L666 328.9L627 333Z" fill="#004434" stroke="#004434"></path><path d="M279 365.7L249 355.9L286 393Z" fill="#003728" stroke="#003728"></path><path d="M292 428.7L301 436.9L329 393Z" fill="#002517" stroke="#002517"></path><path d="M279 351.9L249 355.9L279 365.7Z" fill="#000000" stroke="#000000"></path><path d="M241 334.6L279 351.9L284 279.9Z" fill="#001b08" stroke="#001b08"></path><path d="M205 266L241 334.6L284 279.9Z" fill="#002517" stroke="#002517"></path><path d="M443 475.6L440 496.3L458 479.7Z" fill="#000000" stroke="#000000"></path><path d="M488 519.4L554 475.6L542 456.3Z" fill="#001500" stroke="#001500"></path><path d="M372 506.1L440 496.3L401 446.3Z" fill="#000000" stroke="#000000"></path><path d="M292 428.7L329 393L286 393Z" fill="#003728" stroke="#003728"></path><path d="M324 438.6L361 491.6L401 446.3Z" fill="#003728" stroke="#003728"></path><path d="M263 418.7L292 428.7L286 393Z" fill="#001500" stroke="#001500"></path><path d="M727 250.9L676 255L731 264.1Z" fill="#001f11" stroke="#001f11"></path><path d="M664 290.7L676 255L659 245.3Z" fill="#003e2e" stroke="#003e2e"></path><path d="M659 211L668 179.4L647 173.7Z" fill="#004434" stroke="#004434"></path><path d="M488 519.4L542 456.3L458 479.7Z" fill="#001b08" stroke="#001b08"></path><path d="M613 456.7L561 413.6L567 459.4Z" fill="#001b08" stroke="#001b08"></path><path d="M613 456.7L631 413.9L561 413.6Z" fill="#004b3a" stroke="#004b3a"></path><path d="M488 519.4L559 477.3L554 475.6Z" fill="#003e2e" stroke="#003e2e"></path><path d="M554 475.6L559 477.3L567 459.4Z" fill="#002517" stroke="#002517"></path><path d="M245 116.7L265 142.7L293 133.4Z" fill="#003e2e" stroke="#003e2e"></path><path d="M293 133.4L265 142.7L313 163.3Z" fill="#004b3a" stroke="#004b3a"></path><path d="M560 10.9L595 0L588 0Z" fill="#004434" stroke="#004434"></path><path d="M579 118.7L540 60.7L544 125.3Z" fill="#001f11" stroke="#001f11"></path><path d="M467 73.6L422 0L446 93.9Z" fill="#000000" stroke="#000000"></path><path d="M229 500.4L314 461.7L301 436.9Z" fill="#001500" stroke="#001500"></path><path d="M301 436.9L314 461.7L324 438.6Z" fill="#003728" stroke="#003728"></path><path d="M227 196.4L327 213.1L313 163.3Z" fill="#002517" stroke="#002517"></path><path d="M314 461.7L361 491.6L324 438.6Z" fill="#004b3a" stroke="#004b3a"></path><path d="M724 202.6L668 179.4L659 211Z" fill="#001500" stroke="#001500"></path><path d="M647 173.7L660 97.7L623 174.7Z" fill="#004434" stroke="#004434"></path><path d="M175 202.4L222 229.4L226 222.6Z" fill="#004b3a" stroke="#004b3a"></path><path d="M226 222.6L222 229.4L284 279.9Z" fill="#000000" stroke="#000000"></path><path d="M224 377.4L286 393L249 355.9Z" fill="#003e2e" stroke="#003e2e"></path><path d="M224 377.4L263 418.7L286 393Z" fill="#003e2e" stroke="#003e2e"></path><path d="M292 428.7L220 458.6L301 436.9Z" fill="#001b08" stroke="#001b08"></path><path d="M230 175.7L227 196.4L313 163.3Z" fill="#000000" stroke="#000000"></path><path d="M612 480.7L613 456.7L567 459.4Z" fill="#003728" stroke="#003728"></path><path d="M265 142.7L230 175.7L313 163.3Z" fill="#003122" stroke="#003122"></path><path d="M155 235L205 266L222 229.4Z" fill="#003728" stroke="#003728"></path><path d="M375 520.3L372 506.1L334 549.3Z" fill="#004b3a" stroke="#004b3a"></path><path d="M361 491.6L372 506.1L401 446.3Z" fill="#003122" stroke="#003122"></path><path d="M408 546.4L488 519.4L440 496.3Z" fill="#003122" stroke="#003122"></path><path d="M440 496.3L488 519.4L458 479.7Z" fill="#001500" stroke="#001500"></path><path d="M617 477.3L628 466.4L613 456.7Z" fill="#003728" stroke="#003728"></path><path d="M175 202.4L226 222.6L227 196.4Z" fill="#003e2e" stroke="#003e2e"></path><path d="M222 229.4L205 266L284 279.9Z" fill="#004434" stroke="#004434"></path><path d="M210 352.1L224 377.4L249 355.9Z" fill="#002b1d" stroke="#002b1d"></path><path d="M210 352.1L249 355.9L241 334.6Z" fill="#004434" stroke="#004434"></path><path d="M197 319.1L210 352.1L241 334.6Z" fill="#001500" stroke="#001500"></path><path d="M334 549.3L372 506.1L361 491.6Z" fill="#003122" stroke="#003122"></path><path d="M372 506.1L375 520.3L440 496.3Z" fill="#004434" stroke="#004434"></path><path d="M384 532.4L375 520.3L342 556.1Z" fill="#003728" stroke="#003728"></path><path d="M612 480.7L567 459.4L559 477.3Z" fill="#003e2e" stroke="#003e2e"></path><path d="M613 456.7L628 466.4L631 413.9Z" fill="#001500" stroke="#001500"></path><path d="M720 362.7L718 354.7L666 328.9Z" fill="#002b1d" stroke="#002b1d"></path><path d="M595 522.4L612 480.7L559 477.3Z" fill="#001500" stroke="#001500"></path><path d="M192 291.3L197 319.1L241 334.6Z" fill="#000000" stroke="#000000"></path><path d="M612 480.7L617 477.3L613 456.7Z" fill="#001500" stroke="#001500"></path><path d="M205 266L192 291.3L241 334.6Z" fill="#002b1d" stroke="#002b1d"></path><path d="M154 290L192 291.3L205 266Z" fill="#002b1d" stroke="#002b1d"></path><path d="M265 142.7L245 116.7L230 175.7Z" fill="#002517" stroke="#002517"></path><path d="M170 174.6L175 202.4L227 196.4Z" fill="#003e2e" stroke="#003e2e"></path><path d="M270 37.6L245 116.7L293 133.4Z" fill="#002517" stroke="#002517"></path><path d="M647 472.4L664 433.3L628 466.4Z" fill="#004434" stroke="#004434"></path><path d="M628 466.4L664 433.3L631 413.9Z" fill="#004434" stroke="#004434"></path><path d="M666 328.9L720 322.1L664 290.7Z" fill="#002b1d" stroke="#002b1d"></path><path d="M154 290L193 326.1L197 319.1Z" fill="#001500" stroke="#001500"></path><path d="M197 319.1L193 326.1L210 352.1Z" fill="#002b1d" stroke="#002b1d"></path><path d="M210 352.1L199 373.9L224 377.4Z" fill="#004b3a" stroke="#004b3a"></path><path d="M334 549.3L361 491.6L314 461.7Z" fill="#004b3a" stroke="#004b3a"></path><path d="M375 520.3L384 532.4L440 496.3Z" fill="#003e2e" stroke="#003e2e"></path><path d="M718 354.7L720 322.1L666 328.9Z" fill="#003728" stroke="#003728"></path><path d="M676 255L721 221.4L659 211Z" fill="#003728" stroke="#003728"></path><path d="M224 377.4L202 384.4L263 418.7Z" fill="#004b3a" stroke="#004b3a"></path><path d="M263 418.7L220 458.6L292 428.7Z" fill="#001f11" stroke="#001f11"></path><path d="M193 326.1L199 373.9L210 352.1Z" fill="#003728" stroke="#003728"></path><path d="M696 145.3L647 173.7L668 179.4Z" fill="#000000" stroke="#000000"></path><path d="M696 145.3L660 97.7L647 173.7Z" fill="#004b3a" stroke="#004b3a"></path><path d="M727 250.9L721 221.4L676 255Z" fill="#004434" stroke="#004434"></path><path d="M199 373.9L202 384.4L224 377.4Z" fill="#001500" stroke="#001500"></path><path d="M384 532.4L408 546.4L440 496.3Z" fill="#003728" stroke="#003728"></path><path d="M637 536.1L617 477.3L612 480.7Z" fill="#003122" stroke="#003122"></path><path d="M731 264.1L676 255L664 290.7Z" fill="#002b1d" stroke="#002b1d"></path><path d="M724 202.6L696 145.3L668 179.4Z" fill="#001500" stroke="#001500"></path><path d="M493 0L467 73.6L540 60.7Z" fill="#001500" stroke="#001500"></path><path d="M493 0L469 0L467 73.6Z" fill="#003e2e" stroke="#003e2e"></path><path d="M336 90.9L270 37.6L293 133.4Z" fill="#002b1d" stroke="#002b1d"></path><path d="M469 0L434 0L467 73.6Z" fill="#001b08" stroke="#001b08"></path><path d="M637 536.1L647 472.4L617 477.3Z" fill="#002517" stroke="#002517"></path><path d="M617 477.3L647 472.4L628 466.4Z" fill="#004b3a" stroke="#004b3a"></path><path d="M720 362.7L666 328.9L631 413.9Z" fill="#003e2e" stroke="#003e2e"></path><path d="M595 522.4L559 477.3L563 574.3Z" fill="#003122" stroke="#003122"></path><path d="M720 362.7L631 413.9L664 433.3Z" fill="#000000" stroke="#000000"></path><path d="M720 322.1L731 264.1L664 290.7Z" fill="#003e2e" stroke="#003e2e"></path><path d="M434 0L422 0L467 73.6Z" fill="#000000" stroke="#000000"></path><path d="M729 223.4L724 202.6L721 221.4Z" fill="#001500" stroke="#001500"></path><path d="M766 262L731 264.1L767 323.9Z" fill="#004b3a" stroke="#004b3a"></path><path d="M515 0L493 0L540 60.7Z" fill="#001f11" stroke="#001f11"></path><path d="M729 223.4L721 221.4L727 250.9Z" fill="#004b3a" stroke="#004b3a"></path><path d="M721 221.4L724 202.6L659 211Z" fill="#001b08" stroke="#001b08"></path><path d="M772 225.6L729 223.4L727 250.9Z" fill="#004434" stroke="#004434"></path><path d="M739 369L720 362.7L758 388.6Z" fill="#003e2e" stroke="#003e2e"></path><path d="M766 349.6L767 323.9L720 322.1Z" fill="#003122" stroke="#003122"></path><path d="M532 0L515 0L540 60.7Z" fill="#002517" stroke="#002517"></path><path d="M422 0L388 0L380 86.9Z" fill="#000000" stroke="#000000"></path><path d="M434 0L449 -9.1L422 0Z" fill="#001b08" stroke="#001b08"></path><path d="M422 0L449 -9.1L388 0Z" fill="#000000" stroke="#000000"></path><path d="M469 0L449 -9.1L434 0Z" fill="#003122" stroke="#003122"></path><path d="M474 -20.1L449 -9.1L469 0Z" fill="#002b1d" stroke="#002b1d"></path><path d="M474 -20.1L469 0L493 0Z" fill="#004b3a" stroke="#004b3a"></path><path d="M563 574.3L559 477.3L488 519.4Z" fill="#001b08" stroke="#001b08"></path><path d="M560 10.9L540 60.7L595 0Z" fill="#004b3a" stroke="#004b3a"></path><path d="M560 10.9L532 0L540 60.7Z" fill="#001b08" stroke="#001b08"></path><path d="M515 0L474 -20.1L493 0Z" fill="#004b3a" stroke="#004b3a"></path><path d="M192 152.6L227 196.4L230 175.7Z" fill="#000000" stroke="#000000"></path><path d="M192 291.3L154 290L197 319.1Z" fill="#001f11" stroke="#001f11"></path><path d="M115 357L137 394L199 373.9Z" fill="#004434" stroke="#004434"></path><path d="M204 96.9L192 152.6L245 116.7Z" fill="#004b3a" stroke="#004b3a"></path><path d="M245 116.7L192 152.6L230 175.7Z" fill="#001b08" stroke="#001b08"></path><path d="M532 0L474 -20.1L515 0Z" fill="#003728" stroke="#003728"></path><path d="M449 -9.1L474 -20.1L388 0Z" fill="#003e2e" stroke="#003e2e"></path><path d="M211 494.1L220 458.6L182 481.1Z" fill="#001f11" stroke="#001f11"></path><path d="M202 384.4L220 458.6L263 418.7Z" fill="#002b1d" stroke="#002b1d"></path><path d="M384 532.4L403 589.1L408 546.4Z" fill="#001b08" stroke="#001b08"></path><path d="M280 569.3L334 549.3L314 461.7Z" fill="#004b3a" stroke="#004b3a"></path><path d="M170 174.6L165 195.1L175 202.4Z" fill="#004434" stroke="#004434"></path><path d="M155 235L154 290L205 266Z" fill="#001500" stroke="#001500"></path><path d="M157 222.4L222 229.4L175 202.4Z" fill="#004434" stroke="#004434"></path><path d="M137 394L162 438.9L202 384.4Z" fill="#002b1d" stroke="#002b1d"></path><path d="M288 5.9L270 37.6L336 90.9Z" fill="#001500" stroke="#001500"></path><path d="M177 135.3L170 174.6L192 152.6Z" fill="#004b3a" stroke="#004b3a"></path><path d="M192 152.6L170 174.6L227 196.4Z" fill="#003e2e" stroke="#003e2e"></path><path d="M758 388.6L720 362.7L664 433.3Z" fill="#000000" stroke="#000000"></path><path d="M720 362.7L739 369L718 354.7Z" fill="#004434" stroke="#004434"></path><path d="M731 264.1L766 262L727 250.9Z" fill="#002b1d" stroke="#002b1d"></path><path d="M141 206.3L157 222.4L165 195.1Z" fill="#002b1d" stroke="#002b1d"></path><path d="M165 195.1L157 222.4L175 202.4Z" fill="#003122" stroke="#003122"></path><path d="M157 222.4L155 235L222 229.4Z" fill="#002517" stroke="#002517"></path><path d="M369 600L342 556.1L360 600Z" fill="#004434" stroke="#004434"></path><path d="M334 549.3L342 556.1L375 520.3Z" fill="#002517" stroke="#002517"></path><path d="M408 546.4L481 600L488 519.4Z" fill="#001b08" stroke="#001b08"></path><path d="M270 37.6L204 96.9L245 116.7Z" fill="#002b1d" stroke="#002b1d"></path><path d="M560 10.9L588 0L532 0Z" fill="#001500" stroke="#001500"></path><path d="M532 0L610 -50.1L474 -20.1Z" fill="#003e2e" stroke="#003e2e"></path><path d="M595 0L540 60.7L625 8.7Z" fill="#001500" stroke="#001500"></path><path d="M540 60.7L579 118.7L625 8.7Z" fill="#002b1d" stroke="#002b1d"></path><path d="M204 96.9L177 135.3L192 152.6Z" fill="#003e2e" stroke="#003e2e"></path><path d="M136 165.1L141 206.3L165 195.1Z" fill="#002517" stroke="#002517"></path><path d="M625 8.7L579 118.7L660 97.7Z" fill="#000000" stroke="#000000"></path><path d="M588 0L610 -50.1L532 0Z" fill="#004b3a" stroke="#004b3a"></path><path d="M767 323.9L731 264.1L720 322.1Z" fill="#002b1d" stroke="#002b1d"></path><path d="M729 223.4L772 225.6L724 202.6Z" fill="#004434" stroke="#004434"></path><path d="M752 130.6L729 119.7L696 145.3Z" fill="#003728" stroke="#003728"></path><path d="M388 0L288 5.9L336 90.9Z" fill="#002517" stroke="#002517"></path><path d="M270 37.6L196 68.9L204 96.9Z" fill="#002517" stroke="#002517"></path><path d="M246 0L288 5.9L202 -44.1Z" fill="#000000" stroke="#000000"></path><path d="M759 169.1L696 145.3L724 202.6Z" fill="#003728" stroke="#003728"></path><path d="M696 145.3L729 119.7L660 97.7Z" fill="#003122" stroke="#003122"></path><path d="M688 49.6L625 8.7L660 97.7Z" fill="#002b1d" stroke="#002b1d"></path><path d="M766 349.6L720 322.1L718 354.7Z" fill="#002b1d" stroke="#002b1d"></path><path d="M211 494.1L229 500.4L220 458.6Z" fill="#001500" stroke="#001500"></path><path d="M220 458.6L229 500.4L301 436.9Z" fill="#003728" stroke="#003728"></path><path d="M369 600L384 532.4L342 556.1Z" fill="#002517" stroke="#002517"></path><path d="M369 600L403 589.1L384 532.4Z" fill="#004b3a" stroke="#004b3a"></path><path d="M502 600L563 574.3L488 519.4Z" fill="#002517" stroke="#002517"></path><path d="M595 522.4L637 536.1L612 480.7Z" fill="#003728" stroke="#003728"></path><path d="M756 468.1L758 388.6L664 433.3Z" fill="#002b1d" stroke="#002b1d"></path><path d="M615 600L637 536.1L595 522.4Z" fill="#001f11" stroke="#001f11"></path><path d="M739 369L766 349.6L718 354.7Z" fill="#001b08" stroke="#001b08"></path><path d="M136 165.1L165 195.1L170 174.6Z" fill="#004434" stroke="#004434"></path><path d="M157 222.4L141 206.3L155 235Z" fill="#001500" stroke="#001500"></path><path d="M155 235L89 276.3L154 290Z" fill="#004434" stroke="#004434"></path><path d="M758 388.6L766 349.6L739 369Z" fill="#003e2e" stroke="#003e2e"></path><path d="M780 259.4L772 225.6L766 262Z" fill="#001500" stroke="#001500"></path><path d="M766 262L772 225.6L727 250.9Z" fill="#003728" stroke="#003728"></path><path d="M780 259.4L766 262L767 323.9Z" fill="#002b1d" stroke="#002b1d"></path><path d="M772 225.6L759 169.1L724 202.6Z" fill="#000000" stroke="#000000"></path><path d="M756 468.1L664 433.3L647 472.4Z" fill="#003e2e" stroke="#003e2e"></path><path d="M729 119.7L688 49.6L660 97.7Z" fill="#002517" stroke="#002517"></path><path d="M725 31.7L688 49.6L729 119.7Z" fill="#003728" stroke="#003728"></path><path d="M423 600L481 600L408 546.4Z" fill="#004434" stroke="#004434"></path><path d="M403 589.1L423 600L408 546.4Z" fill="#001f11" stroke="#001f11"></path><path d="M369 600L423 600L403 589.1Z" fill="#002517" stroke="#002517"></path><path d="M165 444.3L220 458.6L202 384.4Z" fill="#002517" stroke="#002517"></path><path d="M360 600L342 556.1L357 600Z" fill="#003e2e" stroke="#003e2e"></path><path d="M802 317L780 259.4L767 323.9Z" fill="#001f11" stroke="#001f11"></path><path d="M759 117.3L752 130.6L759 169.1Z" fill="#000000" stroke="#000000"></path><path d="M481 600L502 600L488 519.4Z" fill="#003e2e" stroke="#003e2e"></path><path d="M233 20.9L196 68.9L270 37.6Z" fill="#000000" stroke="#000000"></path><path d="M204 96.9L196 68.9L177 135.3Z" fill="#001b08" stroke="#001b08"></path><path d="M177 135.3L136 165.1L170 174.6Z" fill="#001500" stroke="#001500"></path><path d="M817 228.3L759 169.1L772 225.6Z" fill="#001b08" stroke="#001b08"></path><path d="M759 169.1L752 130.6L696 145.3Z" fill="#001f11" stroke="#001f11"></path><path d="M199 373.9L193 326.1L115 357Z" fill="#001b08" stroke="#001b08"></path><path d="M137 394L202 384.4L199 373.9Z" fill="#002b1d" stroke="#002b1d"></path><path d="M162 438.9L165 444.3L202 384.4Z" fill="#003122" stroke="#003122"></path><path d="M235 530.3L314 461.7L229 500.4Z" fill="#004b3a" stroke="#004b3a"></path><path d="M160 569.3L235 530.3L211 494.1Z" fill="#003728" stroke="#003728"></path><path d="M211 494.1L235 530.3L229 500.4Z" fill="#004b3a" stroke="#004b3a"></path><path d="M98 126.7L136 165.1L177 135.3Z" fill="#003122" stroke="#003122"></path><path d="M115 357L193 326.1L154 290Z" fill="#001500" stroke="#001500"></path><path d="M817 228.3L787 233.4L780 259.4Z" fill="#002517" stroke="#002517"></path><path d="M780 259.4L787 233.4L772 225.6Z" fill="#003122" stroke="#003122"></path><path d="M246 0L233 20.9L270 37.6Z" fill="#004b3a" stroke="#004b3a"></path><path d="M357 600L342 556.1L343 600Z" fill="#003728" stroke="#003728"></path><path d="M146 467.7L182 481.1L165 444.3Z" fill="#004b3a" stroke="#004b3a"></path><path d="M115 357L154 290L88 346.9Z" fill="#004434" stroke="#004434"></path><path d="M343 600L342 556.1L334 549.3Z" fill="#001500" stroke="#001500"></path><path d="M146 467.7L165 444.3L162 438.9Z" fill="#001f11" stroke="#001f11"></path><path d="M165 444.3L182 481.1L220 458.6Z" fill="#001500" stroke="#001500"></path><path d="M558 600L568 596.1L563 574.3Z" fill="#001500" stroke="#001500"></path><path d="M563 574.3L615 600L595 522.4Z" fill="#001f11" stroke="#001f11"></path><path d="M502 600L558 600L563 574.3Z" fill="#001f11" stroke="#001f11"></path><path d="M235 530.3L280 569.3L314 461.7Z" fill="#000000" stroke="#000000"></path><path d="M280 569.3L343 600L334 549.3Z" fill="#004434" stroke="#004434"></path><path d="M840 96.9L759 117.3L759 169.1Z" fill="#003122" stroke="#003122"></path><path d="M752 130.6L759 117.3L729 119.7Z" fill="#004434" stroke="#004434"></path><path d="M202 -44.1L288 5.9L388 0Z" fill="#003728" stroke="#003728"></path><path d="M288 5.9L246 0L270 37.6Z" fill="#003122" stroke="#003122"></path><path d="M233 20.9L208 0L196 68.9Z" fill="#003728" stroke="#003728"></path><path d="M89 276.3L155 235L141 206.3Z" fill="#003e2e" stroke="#003e2e"></path><path d="M137 394L140 431.3L162 438.9Z" fill="#004b3a" stroke="#004b3a"></path><path d="M64 432.6L140 431.3L137 394Z" fill="#003728" stroke="#003728"></path><path d="M210 0L237 0L202 -44.1Z" fill="#003e2e" stroke="#003e2e"></path><path d="M246 0L237 0L233 20.9Z" fill="#004434" stroke="#004434"></path><path d="M98 126.7L112 173.6L136 165.1Z" fill="#001b08" stroke="#001b08"></path><path d="M847 374.4L802 317L766 349.6Z" fill="#002b1d" stroke="#002b1d"></path><path d="M766 349.6L802 317L767 323.9Z" fill="#003e2e" stroke="#003e2e"></path><path d="M98 179.4L112 173.6L98 126.7Z" fill="#004434" stroke="#004434"></path><path d="M136 165.1L112 173.6L141 206.3Z" fill="#001f11" stroke="#001f11"></path><path d="M573 621.1L558 600L502 600Z" fill="#001500" stroke="#001500"></path><path d="M573 621.1L574 613.1L558 600Z" fill="#002517" stroke="#002517"></path><path d="M558 600L574 613.1L568 596.1Z" fill="#003728" stroke="#003728"></path><path d="M568 596.1L615 600L563 574.3Z" fill="#001500" stroke="#001500"></path><path d="M699 566.4L756 468.1L647 472.4Z" fill="#001f11" stroke="#001f11"></path><path d="M573 621.1L502 600L481 600Z" fill="#004b3a" stroke="#004b3a"></path><path d="M573 621.1L481 600L423 600Z" fill="#001500" stroke="#001500"></path><path d="M573 621.1L423 600L369 600Z" fill="#003e2e" stroke="#003e2e"></path><path d="M573 621.1L369 600L106 647.1Z" fill="#001b08" stroke="#001b08"></path><path d="M369 600L360 600L106 647.1Z" fill="#001500" stroke="#001500"></path><path d="M776 475.7L756 468.1L767 498.4Z" fill="#002517" stroke="#002517"></path><path d="M758 388.6L819 413.9L766 349.6Z" fill="#004b3a" stroke="#004b3a"></path><path d="M690 -34.1L625 8.7L688 49.6Z" fill="#001b08" stroke="#001b08"></path><path d="M690 -34.1L610 -50.1L625 8.7Z" fill="#002517" stroke="#002517"></path><path d="M625 8.7L610 -50.1L595 0Z" fill="#002b1d" stroke="#002b1d"></path><path d="M595 0L610 -50.1L588 0Z" fill="#002b1d" stroke="#002b1d"></path><path d="M202 -44.1L237 0L246 0Z" fill="#004434" stroke="#004434"></path><path d="M139 505.4L146 467.7L121 505.6Z" fill="#002b1d" stroke="#002b1d"></path><path d="M140 431.3L146 467.7L162 438.9Z" fill="#002517" stroke="#002517"></path><path d="M182 481.1L139 505.4L211 494.1Z" fill="#003728" stroke="#003728"></path><path d="M235 530.3L230 607.1L280 569.3Z" fill="#002b1d" stroke="#002b1d"></path><path d="M574 613.1L615 600L568 596.1Z" fill="#003728" stroke="#003728"></path><path d="M98 179.4L89 276.3L141 206.3Z" fill="#004434" stroke="#004434"></path><path d="M115 357L64 432.6L137 394Z" fill="#001b08" stroke="#001b08"></path><path d="M759 117.3L725 31.7L729 119.7Z" fill="#000000" stroke="#000000"></path><path d="M106 647.1L360 600L357 600Z" fill="#004434" stroke="#004434"></path><path d="M574 613.1L573 621.1L615 600Z" fill="#004434" stroke="#004434"></path><path d="M844 260.4L817 228.3L780 259.4Z" fill="#004434" stroke="#004434"></path><path d="M787 233.4L817 228.3L772 225.6Z" fill="#002b1d" stroke="#002b1d"></path><path d="M735 0L718 1.9L725 31.7Z" fill="#003e2e" stroke="#003e2e"></path><path d="M208 0L210 0L202 -44.1Z" fill="#004b3a" stroke="#004b3a"></path><path d="M237 0L210 0L233 20.9Z" fill="#001f11" stroke="#001f11"></path><path d="M98 126.7L177 135.3L114 62.9Z" fill="#002b1d" stroke="#002b1d"></path><path d="M112 173.6L98 179.4L141 206.3Z" fill="#003122" stroke="#003122"></path><path d="M176 -9.3L208 0L202 -44.1Z" fill="#003e2e" stroke="#003e2e"></path><path d="M210 0L208 0L233 20.9Z" fill="#000000" stroke="#000000"></path><path d="M573 621.1L629 600L615 600Z" fill="#002517" stroke="#002517"></path><path d="M615 600L629 600L637 536.1Z" fill="#002b1d" stroke="#002b1d"></path><path d="M89 276.3L88 346.9L154 290Z" fill="#003122" stroke="#003122"></path><path d="M699 566.4L647 472.4L637 536.1Z" fill="#004434" stroke="#004434"></path><path d="M756 468.1L807 423.9L758 388.6Z" fill="#004434" stroke="#004434"></path><path d="M802 317L844 260.4L780 259.4Z" fill="#000000" stroke="#000000"></path><path d="M735 0L725 31.7L750 0Z" fill="#000000" stroke="#000000"></path><path d="M725 31.7L718 1.9L688 49.6Z" fill="#004b3a" stroke="#004b3a"></path><path d="M673 595.1L699 566.4L637 536.1Z" fill="#003e2e" stroke="#003e2e"></path><path d="M776 475.7L807 423.9L756 468.1Z" fill="#001500" stroke="#001500"></path><path d="M699 566.4L767 498.4L756 468.1Z" fill="#002517" stroke="#002517"></path><path d="M834 423.4L819 413.9L807 423.9Z" fill="#004b3a" stroke="#004b3a"></path><path d="M114 62.9L177 135.3L196 68.9Z" fill="#002b1d" stroke="#002b1d"></path><path d="M0 259L59 307.1L89 276.3Z" fill="#001500" stroke="#001500"></path><path d="M629 600L673 595.1L637 536.1Z" fill="#001b08" stroke="#001b08"></path><path d="M739 600L788 510.6L767 498.4Z" fill="#004434" stroke="#004434"></path><path d="M573 621.1L673 595.1L629 600Z" fill="#001500" stroke="#001500"></path><path d="M121 505.6L146 467.7L64 432.6Z" fill="#001500" stroke="#001500"></path><path d="M146 467.7L139 505.4L182 481.1Z" fill="#001f11" stroke="#001f11"></path><path d="M280 569.3L230 607.1L343 600Z" fill="#004434" stroke="#004434"></path><path d="M718 1.9L690 -34.1L688 49.6Z" fill="#003e2e" stroke="#003e2e"></path><path d="M878 337.7L844 260.4L802 317Z" fill="#000000" stroke="#000000"></path><path d="M840 96.9L787 62.9L759 117.3Z" fill="#004434" stroke="#004434"></path><path d="M812 449.3L807 423.9L776 475.7Z" fill="#003e2e" stroke="#003e2e"></path><path d="M807 423.9L819 413.9L758 388.6Z" fill="#001b08" stroke="#001b08"></path><path d="M787 62.9L725 31.7L759 117.3Z" fill="#001b08" stroke="#001b08"></path><path d="M718 1.9L735 0L690 -34.1Z" fill="#003728" stroke="#003728"></path><path d="M89 276.3L59 307.1L88 346.9Z" fill="#003728" stroke="#003728"></path><path d="M64 432.6L146 467.7L140 431.3Z" fill="#004b3a" stroke="#004b3a"></path><path d="M67 173.7L89 276.3L98 179.4Z" fill="#003728" stroke="#003728"></path><path d="M863 205.1L759 169.1L817 228.3Z" fill="#004b3a" stroke="#004b3a"></path><path d="M202 -44.1L388 0L474 -20.1Z" fill="#001f11" stroke="#001f11"></path><path d="M208 0L176 -9.3L196 68.9Z" fill="#004434" stroke="#004434"></path><path d="M824 495.1L812 449.3L776 475.7Z" fill="#003e2e" stroke="#003e2e"></path><path d="M51 130.4L67 173.7L98 126.7Z" fill="#002b1d" stroke="#002b1d"></path><path d="M98 126.7L67 173.7L98 179.4Z" fill="#002b1d" stroke="#002b1d"></path><path d="M209 600L230 607.1L235 530.3Z" fill="#004b3a" stroke="#004b3a"></path><path d="M343 600L106 647.1L357 600Z" fill="#002517" stroke="#002517"></path><path d="M114 42.7L114 62.9L196 68.9Z" fill="#002517" stroke="#002517"></path><path d="M64 432.6L115 357L88 346.9Z" fill="#001f11" stroke="#001f11"></path><path d="M206 600L209 600L235 530.3Z" fill="#002517" stroke="#002517"></path><path d="M764 0L750 0L725 31.7Z" fill="#002b1d" stroke="#002b1d"></path><path d="M735 0L750 0L690 -34.1Z" fill="#003728" stroke="#003728"></path><path d="M855 386.6L847 374.4L819 413.9Z" fill="#004434" stroke="#004434"></path><path d="M819 413.9L847 374.4L766 349.6Z" fill="#003e2e" stroke="#003e2e"></path><path d="M206 600L235 530.3L197 600Z" fill="#004434" stroke="#004434"></path><path d="M610 -50.1L202 -44.1L474 -20.1Z" fill="#004b3a" stroke="#004b3a"></path><path d="M176 -9.3L114 42.7L196 68.9Z" fill="#000000" stroke="#000000"></path><path d="M197 600L235 530.3L160 569.3Z" fill="#002b1d" stroke="#002b1d"></path><path d="M209 600L206 600L230 607.1Z" fill="#002b1d" stroke="#002b1d"></path><path d="M812 449.3L834 423.4L807 423.9Z" fill="#003122" stroke="#003122"></path><path d="M767 498.4L788 510.6L776 475.7Z" fill="#002b1d" stroke="#002b1d"></path><path d="M812 449.3L837 456.3L834 423.4Z" fill="#004434" stroke="#004434"></path><path d="M739 600L767 498.4L699 566.4Z" fill="#000000" stroke="#000000"></path><path d="M92 53.6L114 42.7L82 13.9Z" fill="#002517" stroke="#002517"></path><path d="M114 62.9L92 53.6L98 126.7Z" fill="#000000" stroke="#000000"></path><path d="M160 569.3L211 494.1L139 505.4Z" fill="#000000" stroke="#000000"></path><path d="M206 600L197 600L230 607.1Z" fill="#003122" stroke="#003122"></path><path d="M121 505.6L160 569.3L139 505.4Z" fill="#001b08" stroke="#001b08"></path><path d="M787 62.9L764 0L725 31.7Z" fill="#003728" stroke="#003728"></path><path d="M750 0L764 0L690 -34.1Z" fill="#003122" stroke="#003122"></path><path d="M900 238.4L863 205.1L844 260.4Z" fill="#002b1d" stroke="#002b1d"></path><path d="M844 260.4L863 205.1L817 228.3Z" fill="#004434" stroke="#004434"></path><path d="M787 62.9L836 36.7L764 0Z" fill="#004434" stroke="#004434"></path><path d="M834 423.4L855 386.6L819 413.9Z" fill="#000000" stroke="#000000"></path><path d="M847 374.4L878 337.7L802 317Z" fill="#003122" stroke="#003122"></path><path d="M900 420.3L855 386.6L834 423.4Z" fill="#004434" stroke="#004434"></path><path d="M41 363.6L64 432.6L88 346.9Z" fill="#002517" stroke="#002517"></path><path d="M78 600L169 600L160 569.3Z" fill="#004b3a" stroke="#004b3a"></path><path d="M37 350.7L88 346.9L59 307.1Z" fill="#003122" stroke="#003122"></path><path d="M37 350.7L41 363.6L88 346.9Z" fill="#002b1d" stroke="#002b1d"></path><path d="M2 310.9L37 350.7L59 307.1Z" fill="#001500" stroke="#001500"></path><path d="M82 13.9L114 42.7L176 -9.3Z" fill="#003e2e" stroke="#003e2e"></path><path d="M114 42.7L92 53.6L114 62.9Z" fill="#004434" stroke="#004434"></path><path d="M824 495.1L837 456.3L812 449.3Z" fill="#002b1d" stroke="#002b1d"></path><path d="M41 363.6L58 431.7L64 432.6Z" fill="#002517" stroke="#002517"></path><path d="M64 432.6L87 520.3L121 505.6Z" fill="#003122" stroke="#003122"></path><path d="M36 457.1L58 431.7L0 423.4Z" fill="#001f11" stroke="#001f11"></path><path d="M573 621.1L729 600L673 595.1Z" fill="#003728" stroke="#003728"></path><path d="M673 595.1L729 600L699 566.4Z" fill="#003122" stroke="#003122"></path><path d="M788 510.6L814 508.6L776 475.7Z" fill="#001b08" stroke="#001b08"></path><path d="M863 205.1L840 96.9L759 169.1Z" fill="#003e2e" stroke="#003e2e"></path><path d="M92 53.6L51 130.4L98 126.7Z" fill="#001f11" stroke="#001f11"></path><path d="M67 173.7L5 233.3L89 276.3Z" fill="#003e2e" stroke="#003e2e"></path><path d="M900 317.1L878 337.7L900 359Z" fill="#001f11" stroke="#001f11"></path><path d="M900 359L878 337.7L847 374.4Z" fill="#001500" stroke="#001500"></path><path d="M796 600L814 508.6L788 510.6Z" fill="#001b08" stroke="#001b08"></path><path d="M814 508.6L824 495.1L776 475.7Z" fill="#002b1d" stroke="#002b1d"></path><path d="M900 359L847 374.4L855 386.6Z" fill="#002b1d" stroke="#002b1d"></path><path d="M87 520.3L160 569.3L121 505.6Z" fill="#001500" stroke="#001500"></path><path d="M160 569.3L169 600L197 600Z" fill="#002517" stroke="#002517"></path><path d="M197 600L106 647.1L230 607.1Z" fill="#003e2e" stroke="#003e2e"></path><path d="M573 621.1L739 600L729 600Z" fill="#003728" stroke="#003728"></path><path d="M729 600L739 600L699 566.4Z" fill="#001500" stroke="#001500"></path><path d="M36 457.1L87 520.3L64 432.6Z" fill="#001500" stroke="#001500"></path><path d="M900 238.4L886 180.3L863 205.1Z" fill="#003e2e" stroke="#003e2e"></path><path d="M863 205.1L886 180.3L840 96.9Z" fill="#002517" stroke="#002517"></path><path d="M900 317.1L900 241.3L844 260.4Z" fill="#000000" stroke="#000000"></path><path d="M900 241.3L900 238.4L844 260.4Z" fill="#003e2e" stroke="#003e2e"></path><path d="M900 359L855 386.6L900 420.3Z" fill="#002b1d" stroke="#002b1d"></path><path d="M878 337.7L900 317.1L844 260.4Z" fill="#001f11" stroke="#001f11"></path><path d="M0 150.3L5 233.3L67 173.7Z" fill="#000000" stroke="#000000"></path><path d="M37 350.7L0 389.7L41 363.6Z" fill="#001b08" stroke="#001b08"></path><path d="M850 57.6L787 62.9L840 96.9Z" fill="#001f11" stroke="#001f11"></path><path d="M850 57.6L836 36.7L787 62.9Z" fill="#004b3a" stroke="#004b3a"></path><path d="M0 259L2 310.9L59 307.1Z" fill="#000000" stroke="#000000"></path><path d="M58 431.7L36 457.1L64 432.6Z" fill="#002b1d" stroke="#002b1d"></path><path d="M866 57.9L850 57.6L840 96.9Z" fill="#003e2e" stroke="#003e2e"></path><path d="M5 233.3L0 259L89 276.3Z" fill="#004434" stroke="#004434"></path><path d="M0 113.6L0 122.9L51 130.4Z" fill="#004434" stroke="#004434"></path><path d="M51 130.4L0 150.3L67 173.7Z" fill="#003122" stroke="#003122"></path><path d="M202 -44.1L82 13.9L176 -9.3Z" fill="#002b1d" stroke="#002b1d"></path><path d="M900 420.3L834 423.4L900 431.9Z" fill="#001500" stroke="#001500"></path><path d="M0 401.9L58 431.7L41 363.6Z" fill="#003728" stroke="#003728"></path><path d="M-50 381.4L0 322.1L2 310.9Z" fill="#001b08" stroke="#001b08"></path><path d="M2 310.9L0 322.1L37 350.7Z" fill="#000000" stroke="#000000"></path><path d="M36 457.1L58 517.4L87 520.3Z" fill="#004434" stroke="#004434"></path><path d="M87 520.3L78 600L160 569.3Z" fill="#000000" stroke="#000000"></path><path d="M866 57.9L856 40.6L850 57.6Z" fill="#002517" stroke="#002517"></path><path d="M850 57.6L856 40.6L836 36.7Z" fill="#003728" stroke="#003728"></path><path d="M836 36.7L880 0L764 0Z" fill="#001b08" stroke="#001b08"></path><path d="M764 0L880 0L690 -34.1Z" fill="#004b3a" stroke="#004b3a"></path><path d="M866 57.9L840 96.9L900 76.9Z" fill="#001f11" stroke="#001f11"></path><path d="M900 132.7L840 96.9L886 180.3Z" fill="#001500" stroke="#001500"></path><path d="M0 322.1L0 389.7L37 350.7Z" fill="#001500" stroke="#001500"></path><path d="M36 457.1L0 444.3L58 517.4Z" fill="#004b3a" stroke="#004b3a"></path><path d="M900 238.4L900 132.7L886 180.3Z" fill="#003728" stroke="#003728"></path><path d="M0 389.7L0 398.6L41 363.6Z" fill="#000000" stroke="#000000"></path><path d="M900 431.9L837 456.3L900 452.7Z" fill="#002517" stroke="#002517"></path><path d="M900 431.9L834 423.4L837 456.3Z" fill="#004434" stroke="#004434"></path><path d="M837 456.3L824 495.1L900 488.1Z" fill="#003728" stroke="#003728"></path><path d="M5 233.3L-12 152.6L0 259Z" fill="#004b3a" stroke="#004b3a"></path><path d="M0 122.9L0 150.3L51 130.4Z" fill="#001f11" stroke="#001f11"></path><path d="M0 398.6L0 401.9L41 363.6Z" fill="#003e2e" stroke="#003e2e"></path><path d="M573 621.1L796 600L739 600Z" fill="#004b3a" stroke="#004b3a"></path><path d="M739 600L796 600L788 510.6Z" fill="#001500" stroke="#001500"></path><path d="M900 452.7L837 456.3L900 488.1Z" fill="#004b3a" stroke="#004b3a"></path><path d="M0 401.9L0 423.4L58 431.7Z" fill="#003e2e" stroke="#003e2e"></path><path d="M0 113.6L51 130.4L0 105.4Z" fill="#001b08" stroke="#001b08"></path><path d="M900 488.1L824 495.1L900 491.4Z" fill="#001500" stroke="#001500"></path><path d="M0 122.9L-12 152.6L0 150.3Z" fill="#000000" stroke="#000000"></path><path d="M0 150.3L-12 152.6L5 233.3Z" fill="#001b08" stroke="#001b08"></path><path d="M0 259L-50 381.4L2 310.9Z" fill="#003e2e" stroke="#003e2e"></path><path d="M0 322.1L-50 381.4L0 389.7Z" fill="#001f11" stroke="#001f11"></path><path d="M0 389.7L-50 381.4L0 398.6Z" fill="#001500" stroke="#001500"></path><path d="M0 398.6L-50 381.4L0 401.9Z" fill="#000000" stroke="#000000"></path><path d="M0 401.9L-50 381.4L0 423.4Z" fill="#004434" stroke="#004434"></path><path d="M0 105.4L51 130.4L92 53.6Z" fill="#004b3a" stroke="#004b3a"></path><path d="M0 122.9L0 113.6L-12 152.6Z" fill="#003e2e" stroke="#003e2e"></path><path d="M-55 469.7L0 444.3L0 423.4Z" fill="#002517" stroke="#002517"></path><path d="M0 423.4L0 444.3L36 457.1Z" fill="#004434" stroke="#004434"></path><path d="M18 0L0 105.4L92 53.6Z" fill="#001f11" stroke="#001f11"></path><path d="M0 113.6L0 105.4L-12 152.6Z" fill="#001500" stroke="#001500"></path><path d="M900 132.7L900 76.9L840 96.9Z" fill="#000000" stroke="#000000"></path><path d="M866 57.9L900 58.6L856 40.6Z" fill="#001500" stroke="#001500"></path><path d="M900 491.4L824 495.1L900 525.6Z" fill="#004434" stroke="#004434"></path><path d="M42 567.1L78 600L87 520.3Z" fill="#002b1d" stroke="#002b1d"></path><path d="M169 600L106 647.1L197 600Z" fill="#003728" stroke="#003728"></path><path d="M42 567.1L87 520.3L58 517.4Z" fill="#003e2e" stroke="#003e2e"></path><path d="M863 556.1L824 495.1L814 508.6Z" fill="#002517" stroke="#002517"></path><path d="M900 76.9L900 58.6L866 57.9Z" fill="#001b08" stroke="#001b08"></path><path d="M856 40.6L880 0L836 36.7Z" fill="#003e2e" stroke="#003e2e"></path><path d="M796 600L863 556.1L814 508.6Z" fill="#002b1d" stroke="#002b1d"></path><path d="M-55 469.7L42 567.1L58 517.4Z" fill="#003122" stroke="#003122"></path><path d="M900 58.6L880 0L856 40.6Z" fill="#004b3a" stroke="#004b3a"></path><path d="M690 -34.1L900 0L610 -50.1Z" fill="#000000" stroke="#000000"></path><path d="M0 652.1L106 647.1L78 600Z" fill="#004434" stroke="#004434"></path><path d="M78 600L106 647.1L169 600Z" fill="#003e2e" stroke="#003e2e"></path><path d="M230 607.1L106 647.1L343 600Z" fill="#003e2e" stroke="#003e2e"></path><path d="M863 556.1L900 525.6L824 495.1Z" fill="#003728" stroke="#003728"></path><path d="M-12 152.6L-50 381.4L0 259Z" fill="#001500" stroke="#001500"></path><path d="M0 444.3L-55 469.7L58 517.4Z" fill="#001500" stroke="#001500"></path><path d="M202 -44.1L18 0L82 13.9Z" fill="#002517" stroke="#002517"></path><path d="M82 13.9L18 0L92 53.6Z" fill="#001f11" stroke="#001f11"></path><path d="M0 105.4L0 0L-12 152.6Z" fill="#004b3a" stroke="#004b3a"></path><path d="M0 -0.3L9 0L18 0Z" fill="#001f11" stroke="#001f11"></path><path d="M18 0L9 0L0 105.4Z" fill="#001500" stroke="#001500"></path><path d="M-12 152.6L0 -0.3L-50 381.4Z" fill="#003728" stroke="#003728"></path><path d="M900 58.6L900 0L880 0Z" fill="#003122" stroke="#003122"></path><path d="M880 0L900 0L690 -34.1Z" fill="#002517" stroke="#002517"></path><path d="M0 -0.3L0 0L9 0Z" fill="#000000" stroke="#000000"></path><path d="M9 0L0 0L0 105.4Z" fill="#000000" stroke="#000000"></path><path d="M202 -44.1L0 -0.3L18 0Z" fill="#002b1d" stroke="#002b1d"></path><path d="M0 0L0 -0.3L-12 152.6Z" fill="#000000" stroke="#000000"></path><path d="M796 600L889 590.1L863 556.1Z" fill="#000000" stroke="#000000"></path><path d="M863 556.1L889 590.1L900 525.6Z" fill="#003728" stroke="#003728"></path><path d="M-50 381.4L-55 469.7L0 423.4Z" fill="#001500" stroke="#001500"></path><path d="M42 567.1L0 600L78 600Z" fill="#003e2e" stroke="#003e2e"></path><path d="M796 600L900 600L889 590.1Z" fill="#003122" stroke="#003122"></path><path d="M889 590.1L913 600L900 525.6Z" fill="#002517" stroke="#002517"></path><path d="M951 610.3L900 600L796 600Z" fill="#003e2e" stroke="#003e2e"></path><path d="M-55 469.7L0 600L42 567.1Z" fill="#003122" stroke="#003122"></path><path d="M951 610.3L913 600L900 600Z" fill="#004434" stroke="#004434"></path><path d="M900 600L913 600L889 590.1Z" fill="#003728" stroke="#003728"></path><path d="M900 525.6L951 610.3L900 491.4Z" fill="#003122" stroke="#003122"></path><path d="M900 491.4L951 610.3L900 488.1Z" fill="#001b08" stroke="#001b08"></path><path d="M900 488.1L951 610.3L900 452.7Z" fill="#001f11" stroke="#001f11"></path><path d="M900 452.7L951 610.3L900 431.9Z" fill="#002b1d" stroke="#002b1d"></path><path d="M900 431.9L951 610.3L900 420.3Z" fill="#004b3a" stroke="#004b3a"></path><path d="M900 420.3L951 610.3L900 359Z" fill="#001b08" stroke="#001b08"></path><path d="M900 359L951 610.3L900 317.1Z" fill="#003728" stroke="#003728"></path><path d="M900 317.1L951 610.3L900 241.3Z" fill="#002b1d" stroke="#002b1d"></path><path d="M900 241.3L951 610.3L900 238.4Z" fill="#004434" stroke="#004434"></path><path d="M900 238.4L951 610.3L900 132.7Z" fill="#002b1d" stroke="#002b1d"></path><path d="M900 132.7L951 610.3L900 76.9Z" fill="#004b3a" stroke="#004b3a"></path><path d="M900 76.9L951 610.3L900 58.6Z" fill="#001500" stroke="#001500"></path><path d="M900 58.6L951 610.3L900 0Z" fill="#002b1d" stroke="#002b1d"></path><path d="M0 600L0 652.1L78 600Z" fill="#003728" stroke="#003728"></path><path d="M-55 469.7L0 652.1L0 600Z" fill="#002517" stroke="#002517"></path><path d="M573 621.1L951 610.3L796 600Z" fill="#002b1d" stroke="#002b1d"></path><path d="M913 600L951 610.3L900 525.6Z" fill="#002b1d" stroke="#002b1d"></path><path d="M106 647.1L951 610.3L573 621.1Z" fill="#003728" stroke="#003728"></path><path d="M0 652.1L951 610.3L106 647.1Z" fill="#002b1d" stroke="#002b1d"></path></g></svg>